<?xml version="1.0" encoding="UTF-8" standalone="no"?><svg xmlns="http://www.w3.org/2000/svg" xmlns:xlink="http://www.w3.org/1999/xlink" contentScriptType="application/ecmascript" contentStyleType="text/css" height="930px" preserveAspectRatio="none" style="width:2361px;height:930px;background:#FFFFFF;" version="1.1" viewBox="0 0 2361 930" width="2361px" zoomAndPan="magnify"><defs><filter height="300%" id="fp8l3nvmmxuiu" width="300%" x="-1" y="-1"><feGaussianBlur result="blurOut" stdDeviation="2.0"/><feColorMatrix in="blurOut" result="blurOut2" type="matrix" values="0 0 0 0 0 0 0 0 0 0 0 0 0 0 0 0 0 0 .4 0"/><feOffset dx="4.0" dy="4.0" in="blurOut2" result="blurOut3"/><feBlend in="SourceGraphic" in2="blurOut3" mode="normal"/></filter></defs><g><rect fill="#FFFFFF" filter="url(#fp8l3nvmmxuiu)" height="50.2656" style="stroke:#A80036;stroke-width:1.0;" width="10" x="118.5" y="98.2969"/><rect fill="#FFFFFF" filter="url(#fp8l3nvmmxuiu)" height="739.3203" style="stroke:#A80036;stroke-width:1.0;" width="10" x="381.5" y="98.2969"/><rect fill="#FFFFFF" filter="url(#fp8l3nvmmxuiu)" height="739.3203" style="stroke:#A80036;stroke-width:1.0;" width="10" x="381.5" y="98.2969"/><rect fill="#FFFFFF" filter="url(#fp8l3nvmmxuiu)" height="29.1328" style="stroke:#A80036;stroke-width:1.0;" width="10" x="621.5" y="177.6953"/><rect fill="#FFFFFF" filter="url(#fp8l3nvmmxuiu)" height="630.7891" style="stroke:#A80036;stroke-width:1.0;" width="10" x="791" y="206.8281"/><rect fill="#FFFFFF" filter="url(#fp8l3nvmmxuiu)" height="530.3906" style="stroke:#A80036;stroke-width:1.0;" width="10" x="991" y="307.2266"/><rect fill="#FFFFFF" filter="url(#fp8l3nvmmxuiu)" height="442.9922" style="stroke:#A80036;stroke-width:1.0;" width="10" x="1184" y="394.625"/><rect fill="#FFFFFF" filter="url(#fp8l3nvmmxuiu)" height="413.8594" style="stroke:#A80036;stroke-width:1.0;" width="10" x="1390" y="423.7578"/><rect fill="#FFFFFF" filter="url(#fp8l3nvmmxuiu)" height="384.7266" style="stroke:#A80036;stroke-width:1.0;" width="10" x="1584" y="452.8906"/><rect fill="#FFFFFF" filter="url(#fp8l3nvmmxuiu)" height="203.9297" style="stroke:#A80036;stroke-width:1.0;" width="10" x="1845.5" y="556.4219"/><rect fill="#FFFFFF" filter="url(#fp8l3nvmmxuiu)" height="145.6641" style="stroke:#A80036;stroke-width:1.0;" width="10" x="2033.5" y="585.5547"/><rect fill="#FFFFFF" filter="url(#fp8l3nvmmxuiu)" height="87.3984" style="stroke:#A80036;stroke-width:1.0;" width="10" x="2193.5" y="614.6875"/><rect fill="#FFFFFF" filter="url(#fp8l3nvmmxuiu)" height="29.1328" style="stroke:#A80036;stroke-width:1.0;" width="10" x="2318.5" y="643.8203"/><line style="stroke:#A80036;stroke-width:1.0;stroke-dasharray:5.0,5.0;" x1="23" x2="23" y1="88.2969" y2="846.6172"/><line style="stroke:#A80036;stroke-width:1.0;stroke-dasharray:5.0,5.0;" x1="123" x2="123" y1="88.2969" y2="846.6172"/><line style="stroke:#A80036;stroke-width:1.0;stroke-dasharray:5.0,5.0;" x1="381" x2="381" y1="88.2969" y2="846.6172"/><line style="stroke:#A80036;stroke-width:1.0;stroke-dasharray:5.0,5.0;" x1="626.5" x2="626.5" y1="88.2969" y2="846.6172"/><line style="stroke:#A80036;stroke-width:1.0;stroke-dasharray:5.0,5.0;" x1="795.5" x2="795.5" y1="88.2969" y2="846.6172"/><line style="stroke:#A80036;stroke-width:1.0;stroke-dasharray:5.0,5.0;" x1="996" x2="996" y1="88.2969" y2="846.6172"/><line style="stroke:#A80036;stroke-width:1.0;stroke-dasharray:5.0,5.0;" x1="1189" x2="1189" y1="88.2969" y2="846.6172"/><line style="stroke:#A80036;stroke-width:1.0;stroke-dasharray:5.0,5.0;" x1="1395" x2="1395" y1="88.2969" y2="846.6172"/><line style="stroke:#A80036;stroke-width:1.0;stroke-dasharray:5.0,5.0;" x1="1589" x2="1589" y1="88.2969" y2="846.6172"/><line style="stroke:#A80036;stroke-width:1.0;stroke-dasharray:5.0,5.0;" x1="1699" x2="1699" y1="88.2969" y2="846.6172"/><line style="stroke:#A80036;stroke-width:1.0;stroke-dasharray:5.0,5.0;" x1="1850" x2="1850" y1="88.2969" y2="846.6172"/><line style="stroke:#A80036;stroke-width:1.0;stroke-dasharray:5.0,5.0;" x1="2038" x2="2038" y1="88.2969" y2="846.6172"/><line style="stroke:#A80036;stroke-width:1.0;stroke-dasharray:5.0,5.0;" x1="2198" x2="2198" y1="88.2969" y2="846.6172"/><line style="stroke:#A80036;stroke-width:1.0;stroke-dasharray:5.0,5.0;" x1="2323.5" x2="2323.5" y1="88.2969" y2="846.6172"/><text fill="#000000" font-family="sans-serif" font-size="14" lengthAdjust="spacing" textLength="31" x="5" y="84.9951">User</text><ellipse cx="23.5" cy="15" fill="#FEFECE" filter="url(#fp8l3nvmmxuiu)" rx="8" ry="8" style="stroke:#A80036;stroke-width:2.0;"/><path d="M23.5,23 L23.5,50 M10.5,31 L36.5,31 M23.5,50 L10.5,65 M23.5,50 L36.5,65 " fill="none" filter="url(#fp8l3nvmmxuiu)" style="stroke:#A80036;stroke-width:2.0;"/><text fill="#000000" font-family="sans-serif" font-size="14" lengthAdjust="spacing" textLength="31" x="5" y="858.6123">User</text><ellipse cx="23.5" cy="871.9141" fill="#FEFECE" filter="url(#fp8l3nvmmxuiu)" rx="8" ry="8" style="stroke:#A80036;stroke-width:2.0;"/><path d="M23.5,879.9141 L23.5,906.9141 M10.5,887.9141 L36.5,887.9141 M23.5,906.9141 L10.5,921.9141 M23.5,906.9141 L36.5,921.9141 " fill="none" filter="url(#fp8l3nvmmxuiu)" style="stroke:#A80036;stroke-width:2.0;"/><rect fill="#ADD8E6" filter="url(#fp8l3nvmmxuiu)" height="30.2969" style="stroke:#A80036;stroke-width:1.5;" width="139" x="52" y="53"/><text fill="#000000" font-family="sans-serif" font-size="14" lengthAdjust="spacing" textLength="125" x="59" y="72.9951">LoginComponent</text><rect fill="#ADD8E6" filter="url(#fp8l3nvmmxuiu)" height="30.2969" style="stroke:#A80036;stroke-width:1.5;" width="139" x="52" y="845.6172"/><text fill="#000000" font-family="sans-serif" font-size="14" lengthAdjust="spacing" textLength="125" x="59" y="865.6123">LoginComponent</text><rect fill="#ADD8E6" filter="url(#fp8l3nvmmxuiu)" height="30.2969" style="stroke:#A80036;stroke-width:1.5;" width="159" x="300" y="53"/><text fill="#000000" font-family="sans-serif" font-size="14" lengthAdjust="spacing" textLength="145" x="307" y="72.9951">app-routing-module</text><rect fill="#ADD8E6" filter="url(#fp8l3nvmmxuiu)" height="30.2969" style="stroke:#A80036;stroke-width:1.5;" width="159" x="300" y="845.6172"/><text fill="#000000" font-family="sans-serif" font-size="14" lengthAdjust="spacing" textLength="145" x="307" y="865.6123">app-routing-module</text><rect fill="#ADD8E6" filter="url(#fp8l3nvmmxuiu)" height="30.2969" style="stroke:#A80036;stroke-width:1.5;" width="154" x="547.5" y="53"/><text fill="#000000" font-family="sans-serif" font-size="14" lengthAdjust="spacing" textLength="140" x="554.5" y="72.9951">AuthorizationGuard</text><rect fill="#ADD8E6" filter="url(#fp8l3nvmmxuiu)" height="30.2969" style="stroke:#A80036;stroke-width:1.5;" width="154" x="547.5" y="845.6172"/><text fill="#000000" font-family="sans-serif" font-size="14" lengthAdjust="spacing" textLength="140" x="554.5" y="865.6123">AuthorizationGuard</text><rect fill="#ADD8E6" filter="url(#fp8l3nvmmxuiu)" height="46.5938" style="stroke:#A80036;stroke-width:1.5;" width="157" x="715.5" y="36.7031"/><text fill="#000000" font-family="sans-serif" font-size="14" font-style="italic" lengthAdjust="spacing" textLength="98" x="745" y="56.6982">«DevModule»</text><text fill="#000000" font-family="sans-serif" font-size="14" lengthAdjust="spacing" textLength="143" x="722.5" y="72.9951">dev-routing-module</text><rect fill="#ADD8E6" filter="url(#fp8l3nvmmxuiu)" height="46.5938" style="stroke:#A80036;stroke-width:1.5;" width="157" x="715.5" y="845.6172"/><text fill="#000000" font-family="sans-serif" font-size="14" font-style="italic" lengthAdjust="spacing" textLength="98" x="745" y="865.6123">«DevModule»</text><text fill="#000000" font-family="sans-serif" font-size="14" lengthAdjust="spacing" textLength="143" x="722.5" y="881.9092">dev-routing-module</text><rect fill="#ADD8E6" filter="url(#fp8l3nvmmxuiu)" height="30.2969" style="stroke:#A80036;stroke-width:1.5;" width="126" x="931" y="53"/><text fill="#000000" font-family="sans-serif" font-size="14" lengthAdjust="spacing" textLength="112" x="938" y="72.9951">NavComponent</text><rect fill="#ADD8E6" filter="url(#fp8l3nvmmxuiu)" height="30.2969" style="stroke:#A80036;stroke-width:1.5;" width="126" x="931" y="845.6172"/><text fill="#000000" font-family="sans-serif" font-size="14" lengthAdjust="spacing" textLength="112" x="938" y="865.6123">NavComponent</text><rect fill="#ADD8E6" filter="url(#fp8l3nvmmxuiu)" height="30.2969" style="stroke:#A80036;stroke-width:1.5;" width="232" x="1071" y="53"/><text fill="#000000" font-family="sans-serif" font-size="14" lengthAdjust="spacing" textLength="218" x="1078" y="72.9951">AssignmentsTableComponent</text><rect fill="#ADD8E6" filter="url(#fp8l3nvmmxuiu)" height="30.2969" style="stroke:#A80036;stroke-width:1.5;" width="232" x="1071" y="845.6172"/><text fill="#000000" font-family="sans-serif" font-size="14" lengthAdjust="spacing" textLength="218" x="1078" y="865.6123">AssignmentsTableComponent</text><rect fill="#ADD8E6" filter="url(#fp8l3nvmmxuiu)" height="30.2969" style="stroke:#A80036;stroke-width:1.5;" width="152" x="1317" y="53"/><text fill="#000000" font-family="sans-serif" font-size="14" lengthAdjust="spacing" textLength="138" x="1324" y="72.9951">AssignmentService</text><rect fill="#ADD8E6" filter="url(#fp8l3nvmmxuiu)" height="30.2969" style="stroke:#A80036;stroke-width:1.5;" width="152" x="1317" y="845.6172"/><text fill="#000000" font-family="sans-serif" font-size="14" lengthAdjust="spacing" textLength="138" x="1324" y="865.6123">AssignmentService</text><rect fill="#FFFFE0" filter="url(#fp8l3nvmmxuiu)" height="30.2969" style="stroke:#A80036;stroke-width:1.5;" width="42" x="1566" y="53"/><text fill="#000000" font-family="sans-serif" font-size="14" lengthAdjust="spacing" textLength="28" x="1573" y="72.9951">Red</text><rect fill="#FFFFE0" filter="url(#fp8l3nvmmxuiu)" height="30.2969" style="stroke:#A80036;stroke-width:1.5;" width="42" x="1566" y="845.6172"/><text fill="#000000" font-family="sans-serif" font-size="14" lengthAdjust="spacing" textLength="28" x="1573" y="865.6123">Red</text><rect fill="#90EE90" filter="url(#fp8l3nvmmxuiu)" height="30.2969" style="stroke:#A80036;stroke-width:1.5;" width="150" x="1622" y="53"/><text fill="#000000" font-family="sans-serif" font-size="14" lengthAdjust="spacing" textLength="136" x="1629" y="72.9951">AuthorizationFilter</text><rect fill="#90EE90" filter="url(#fp8l3nvmmxuiu)" height="30.2969" style="stroke:#A80036;stroke-width:1.5;" width="150" x="1622" y="845.6172"/><text fill="#000000" font-family="sans-serif" font-size="14" lengthAdjust="spacing" textLength="136" x="1629" y="865.6123">AuthorizationFilter</text><rect fill="#90EE90" filter="url(#fp8l3nvmmxuiu)" height="46.5938" style="stroke:#A80036;stroke-width:1.5;" width="125" x="1786" y="36.7031"/><text fill="#000000" font-family="sans-serif" font-size="14" font-style="italic" lengthAdjust="spacing" textLength="73" x="1812" y="56.6982">«WebApi»</text><text fill="#000000" font-family="sans-serif" font-size="14" lengthAdjust="spacing" textLength="111" x="1793" y="72.9951">WorkController</text><rect fill="#90EE90" filter="url(#fp8l3nvmmxuiu)" height="46.5938" style="stroke:#A80036;stroke-width:1.5;" width="125" x="1786" y="845.6172"/><text fill="#000000" font-family="sans-serif" font-size="14" font-style="italic" lengthAdjust="spacing" textLength="73" x="1812" y="865.6123">«WebApi»</text><text fill="#000000" font-family="sans-serif" font-size="14" lengthAdjust="spacing" textLength="111" x="1793" y="881.9092">WorkController</text><rect fill="#90EE90" filter="url(#fp8l3nvmmxuiu)" height="30.2969" style="stroke:#A80036;stroke-width:1.5;" width="151" x="1961" y="53"/><text fill="#000000" font-family="sans-serif" font-size="14" lengthAdjust="spacing" textLength="137" x="1968" y="72.9951">WorkBusinessLogic</text><rect fill="#90EE90" filter="url(#fp8l3nvmmxuiu)" height="30.2969" style="stroke:#A80036;stroke-width:1.5;" width="151" x="1961" y="845.6172"/><text fill="#000000" font-family="sans-serif" font-size="14" lengthAdjust="spacing" textLength="137" x="1968" y="865.6123">WorkBusinessLogic</text><rect fill="#90EE90" filter="url(#fp8l3nvmmxuiu)" height="30.2969" style="stroke:#A80036;stroke-width:1.5;" width="135" x="2129" y="53"/><text fill="#000000" font-family="sans-serif" font-size="14" lengthAdjust="spacing" textLength="121" x="2136" y="72.9951">WorkDataAccess</text><rect fill="#90EE90" filter="url(#fp8l3nvmmxuiu)" height="30.2969" style="stroke:#A80036;stroke-width:1.5;" width="135" x="2129" y="845.6172"/><text fill="#000000" font-family="sans-serif" font-size="14" lengthAdjust="spacing" textLength="121" x="2136" y="865.6123">WorkDataAccess</text><text fill="#000000" font-family="sans-serif" font-size="14" lengthAdjust="spacing" textLength="68" x="2286.5" y="84.9951">DataBase</text><path d="M2305.5,36 C2305.5,26 2323.5,26 2323.5,26 C2323.5,26 2341.5,26 2341.5,36 L2341.5,62 C2341.5,72 2323.5,72 2323.5,72 C2323.5,72 2305.5,72 2305.5,62 L2305.5,36 " fill="#90EE90" filter="url(#fp8l3nvmmxuiu)" style="stroke:#000000;stroke-width:1.5;"/><path d="M2305.5,36 C2305.5,46 2323.5,46 2323.5,46 C2323.5,46 2341.5,46 2341.5,36 " fill="none" style="stroke:#000000;stroke-width:1.5;"/><text fill="#000000" font-family="sans-serif" font-size="14" lengthAdjust="spacing" textLength="68" x="2286.5" y="858.6123">DataBase</text><path d="M2305.5,871.9141 C2305.5,861.9141 2323.5,861.9141 2323.5,861.9141 C2323.5,861.9141 2341.5,861.9141 2341.5,871.9141 L2341.5,897.9141 C2341.5,907.9141 2323.5,907.9141 2323.5,907.9141 C2323.5,907.9141 2305.5,907.9141 2305.5,897.9141 L2305.5,871.9141 " fill="#90EE90" filter="url(#fp8l3nvmmxuiu)" style="stroke:#000000;stroke-width:1.5;"/><path d="M2305.5,871.9141 C2305.5,881.9141 2323.5,881.9141 2323.5,881.9141 C2323.5,881.9141 2341.5,881.9141 2341.5,871.9141 " fill="none" style="stroke:#000000;stroke-width:1.5;"/><rect fill="#FFFFFF" filter="url(#fp8l3nvmmxuiu)" height="50.2656" style="stroke:#A80036;stroke-width:1.0;" width="10" x="118.5" y="98.2969"/><rect fill="#FFFFFF" filter="url(#fp8l3nvmmxuiu)" height="739.3203" style="stroke:#A80036;stroke-width:1.0;" width="10" x="381.5" y="98.2969"/><rect fill="#FFFFFF" filter="url(#fp8l3nvmmxuiu)" height="739.3203" style="stroke:#A80036;stroke-width:1.0;" width="10" x="381.5" y="98.2969"/><rect fill="#FFFFFF" filter="url(#fp8l3nvmmxuiu)" height="29.1328" style="stroke:#A80036;stroke-width:1.0;" width="10" x="621.5" y="177.6953"/><rect fill="#FFFFFF" filter="url(#fp8l3nvmmxuiu)" height="630.7891" style="stroke:#A80036;stroke-width:1.0;" width="10" x="791" y="206.8281"/><rect fill="#FFFFFF" filter="url(#fp8l3nvmmxuiu)" height="530.3906" style="stroke:#A80036;stroke-width:1.0;" width="10" x="991" y="307.2266"/><rect fill="#FFFFFF" filter="url(#fp8l3nvmmxuiu)" height="442.9922" style="stroke:#A80036;stroke-width:1.0;" width="10" x="1184" y="394.625"/><rect fill="#FFFFFF" filter="url(#fp8l3nvmmxuiu)" height="413.8594" style="stroke:#A80036;stroke-width:1.0;" width="10" x="1390" y="423.7578"/><rect fill="#FFFFFF" filter="url(#fp8l3nvmmxuiu)" height="384.7266" style="stroke:#A80036;stroke-width:1.0;" width="10" x="1584" y="452.8906"/><rect fill="#FFFFFF" filter="url(#fp8l3nvmmxuiu)" height="203.9297" style="stroke:#A80036;stroke-width:1.0;" width="10" x="1845.5" y="556.4219"/><rect fill="#FFFFFF" filter="url(#fp8l3nvmmxuiu)" height="145.6641" style="stroke:#A80036;stroke-width:1.0;" width="10" x="2033.5" y="585.5547"/><rect fill="#FFFFFF" filter="url(#fp8l3nvmmxuiu)" height="87.3984" style="stroke:#A80036;stroke-width:1.0;" width="10" x="2193.5" y="614.6875"/><rect fill="#FFFFFF" filter="url(#fp8l3nvmmxuiu)" height="29.1328" style="stroke:#A80036;stroke-width:1.0;" width="10" x="2318.5" y="643.8203"/><polygon fill="#A80036" points="106.5,115.4297,116.5,119.4297,106.5,123.4297,110.5,119.4297" style="stroke:#A80036;stroke-width:1.0;"/><line style="stroke:#A80036;stroke-width:1.0;" x1="23.5" x2="112.5" y1="119.4297" y2="119.4297"/><text fill="#000000" font-family="sans-serif" font-size="13" lengthAdjust="spacing" textLength="65" x="30.5" y="114.3638">click Login</text><polygon fill="#A80036" points="369.5,144.5625,379.5,148.5625,369.5,152.5625,373.5,148.5625" style="stroke:#A80036;stroke-width:1.0;"/><line style="stroke:#A80036;stroke-width:1.0;" x1="123.5" x2="375.5" y1="148.5625" y2="148.5625"/><text fill="#000000" font-family="sans-serif" font-size="13" lengthAdjust="spacing" textLength="224" x="130.5" y="143.4966">router.navigateByUrl(`/dev`) : void</text><polygon fill="#A80036" points="609.5,173.6953,619.5,177.6953,609.5,181.6953,613.5,177.6953" style="stroke:#A80036;stroke-width:1.0;"/><line style="stroke:#A80036;stroke-width:1.0;" x1="391.5" x2="615.5" y1="177.6953" y2="177.6953"/><text fill="#000000" font-family="sans-serif" font-size="13" lengthAdjust="spacing" textLength="211" x="398.5" y="172.6294">canActivate, data: { role: 'dev' }</text><polygon fill="#A80036" points="402.5,202.8281,392.5,206.8281,402.5,210.8281,398.5,206.8281" style="stroke:#A80036;stroke-width:1.0;"/><line style="stroke:#A80036;stroke-width:1.0;stroke-dasharray:2.0,2.0;" x1="396.5" x2="625.5" y1="206.8281" y2="206.8281"/><text fill="#000000" font-family="sans-serif" font-size="13" lengthAdjust="spacing" textLength="26" x="408.5" y="201.7622">true</text><polygon fill="#A80036" points="779,231.9609,789,235.9609,779,239.9609,783,235.9609" style="stroke:#A80036;stroke-width:1.0;"/><line style="stroke:#A80036;stroke-width:1.0;" x1="391.5" x2="785" y1="235.9609" y2="235.9609"/><text fill="#000000" font-family="sans-serif" font-size="13" lengthAdjust="spacing" textLength="211" x="398.5" y="230.895">import('./views/dev/dev.module')</text><line style="stroke:#A80036;stroke-width:1.0;" x1="801" x2="843" y1="265.0938" y2="265.0938"/><line style="stroke:#A80036;stroke-width:1.0;" x1="843" x2="843" y1="265.0938" y2="278.0938"/><line style="stroke:#A80036;stroke-width:1.0;" x1="802" x2="843" y1="278.0938" y2="278.0938"/><polygon fill="#A80036" points="812,274.0938,802,278.0938,812,282.0938,808,278.0938" style="stroke:#A80036;stroke-width:1.0;"/><text fill="#000000" font-family="sans-serif" font-size="13" lengthAdjust="spacing" textLength="104" x="808" y="260.0278">redirectTo: 'bug'</text><polygon fill="#A80036" points="979,303.2266,989,307.2266,979,311.2266,983,307.2266" style="stroke:#A80036;stroke-width:1.0;"/><line style="stroke:#A80036;stroke-width:1.0;" x1="801" x2="985" y1="307.2266" y2="307.2266"/><text fill="#000000" font-family="sans-serif" font-size="13" lengthAdjust="spacing" textLength="34" x="808" y="302.1606">loads</text><polygon fill="#A80036" points="979,332.3594,989,336.3594,979,340.3594,983,336.3594" style="stroke:#A80036;stroke-width:1.0;"/><line style="stroke:#A80036;stroke-width:1.0;" x1="23.5" x2="985" y1="336.3594" y2="336.3594"/><text fill="#000000" font-family="sans-serif" font-size="13" lengthAdjust="spacing" textLength="121" x="30.5" y="331.2935">click Assisgnments</text><polygon fill="#A80036" points="812,361.4922,802,365.4922,812,369.4922,808,365.4922" style="stroke:#A80036;stroke-width:1.0;"/><line style="stroke:#A80036;stroke-width:1.0;" x1="806" x2="990" y1="365.4922" y2="365.4922"/><text fill="#000000" font-family="sans-serif" font-size="13" lengthAdjust="spacing" textLength="166" x="818" y="360.4263">routerLink="assignments"</text><polygon fill="#A80036" points="1172,390.625,1182,394.625,1172,398.625,1176,394.625" style="stroke:#A80036;stroke-width:1.0;"/><line style="stroke:#A80036;stroke-width:1.0;" x1="801" x2="1178" y1="394.625" y2="394.625"/><text fill="#000000" font-family="sans-serif" font-size="13" lengthAdjust="spacing" textLength="34" x="808" y="389.5591">loads</text><polygon fill="#A80036" points="1378,419.7578,1388,423.7578,1378,427.7578,1382,423.7578" style="stroke:#A80036;stroke-width:1.0;"/><line style="stroke:#A80036;stroke-width:1.0;" x1="1194" x2="1384" y1="423.7578" y2="423.7578"/><text fill="#000000" font-family="sans-serif" font-size="13" lengthAdjust="spacing" textLength="114" x="1201" y="418.6919">getAssignments()</text><polygon fill="#A80036" points="1572,448.8906,1582,452.8906,1572,456.8906,1576,452.8906" style="stroke:#A80036;stroke-width:1.0;"/><line style="stroke:#A80036;stroke-width:1.0;" x1="1400" x2="1578" y1="452.8906" y2="452.8906"/><text fill="#000000" font-family="sans-serif" font-size="13" lengthAdjust="spacing" textLength="165" x="1407" y="447.8247">GET HTTP endpoint/works</text><polygon fill="#A80036" points="1687,462.8906,1697,466.8906,1687,470.8906,1691,466.8906" style="stroke:#A80036;stroke-width:1.0;"/><line style="stroke:#A80036;stroke-width:1.0;" x1="1594" x2="1693" y1="466.8906" y2="466.8906"/><rect fill="#FFFFFF" filter="url(#fp8l3nvmmxuiu)" height="55.3984" style="stroke:#000000;stroke-width:2.0;" width="189" x="1619" y="474.8906"/><path d="M1619,474.8906 L1687,474.8906 L1687,481.8906 L1677,491.8906 L1619,491.8906 L1619,474.8906 " fill="#EEEEEE" style="stroke:#000000;stroke-width:2.0;"/><text fill="#000000" font-family="sans-serif" font-size="13" font-weight="bold" lengthAdjust="spacing" textLength="23" x="1632" y="488.9575">ref</text><text fill="#000000" font-family="sans-serif" font-size="13" lengthAdjust="spacing" textLength="128" x="1625" y="507.9575">Login y autorización</text><text fill="#000000" font-family="sans-serif" font-size="13" lengthAdjust="spacing" textLength="181" x="1625" y="523.0903">(no parte de este diagrama)</text><polygon fill="#A80036" points="1833.5,552.4219,1843.5,556.4219,1833.5,560.4219,1837.5,556.4219" style="stroke:#A80036;stroke-width:1.0;"/><line style="stroke:#A80036;stroke-width:1.0;" x1="1594" x2="1839.5" y1="556.4219" y2="556.4219"/><text fill="#000000" font-family="sans-serif" font-size="13" lengthAdjust="spacing" textLength="112" x="1601" y="551.356">[HttpGet] GetAll()</text><polygon fill="#A80036" points="2021.5,581.5547,2031.5,585.5547,2021.5,589.5547,2025.5,585.5547" style="stroke:#A80036;stroke-width:1.0;"/><line style="stroke:#A80036;stroke-width:1.0;" x1="1855.5" x2="2027.5" y1="585.5547" y2="585.5547"/><text fill="#000000" font-family="sans-serif" font-size="13" lengthAdjust="spacing" textLength="84" x="1862.5" y="580.4888">GetAll(token)</text><polygon fill="#A80036" points="2181.5,610.6875,2191.5,614.6875,2181.5,618.6875,2185.5,614.6875" style="stroke:#A80036;stroke-width:1.0;"/><line style="stroke:#A80036;stroke-width:1.0;" x1="2043.5" x2="2187.5" y1="614.6875" y2="614.6875"/><text fill="#000000" font-family="sans-serif" font-size="13" lengthAdjust="spacing" textLength="84" x="2050.5" y="609.6216">GetAll(token)</text><polygon fill="#A80036" points="2306.5,639.8203,2316.5,643.8203,2306.5,647.8203,2310.5,643.8203" style="stroke:#A80036;stroke-width:1.0;"/><line style="stroke:#A80036;stroke-width:1.0;" x1="2203.5" x2="2312.5" y1="643.8203" y2="643.8203"/><text fill="#000000" font-family="sans-serif" font-size="13" lengthAdjust="spacing" textLength="86" x="2210.5" y="638.7544">context.Work</text><polygon fill="#A80036" points="2214.5,668.9531,2204.5,672.9531,2214.5,676.9531,2210.5,672.9531" style="stroke:#A80036;stroke-width:1.0;"/><line style="stroke:#A80036;stroke-width:1.0;stroke-dasharray:2.0,2.0;" x1="2208.5" x2="2322.5" y1="672.9531" y2="672.9531"/><text fill="#000000" font-family="sans-serif" font-size="13" lengthAdjust="spacing" textLength="91" x="2220.5" y="667.8872">Dbset&lt;Work&gt;</text><polygon fill="#A80036" points="2054.5,698.0859,2044.5,702.0859,2054.5,706.0859,2050.5,702.0859" style="stroke:#A80036;stroke-width:1.0;"/><line style="stroke:#A80036;stroke-width:1.0;stroke-dasharray:2.0,2.0;" x1="2048.5" x2="2197.5" y1="702.0859" y2="702.0859"/><text fill="#000000" font-family="sans-serif" font-size="13" lengthAdjust="spacing" textLength="126" x="2060.5" y="697.02">works : List&lt;Work&gt;</text><polygon fill="#A80036" points="1866.5,727.2188,1856.5,731.2188,1866.5,735.2188,1862.5,731.2188" style="stroke:#A80036;stroke-width:1.0;"/><line style="stroke:#A80036;stroke-width:1.0;stroke-dasharray:2.0,2.0;" x1="1860.5" x2="2037.5" y1="731.2188" y2="731.2188"/><text fill="#000000" font-family="sans-serif" font-size="13" lengthAdjust="spacing" textLength="154" x="1872.5" y="726.1528">works : List&lt;WorkDTO&gt;</text><polygon fill="#A80036" points="1605,756.3516,1595,760.3516,1605,764.3516,1601,760.3516" style="stroke:#A80036;stroke-width:1.0;"/><line style="stroke:#A80036;stroke-width:1.0;stroke-dasharray:2.0,2.0;" x1="1599" x2="1849.5" y1="760.3516" y2="760.3516"/><text fill="#000000" font-family="sans-serif" font-size="13" lengthAdjust="spacing" textLength="112" x="1611" y="755.2856">JSON&lt;WorkDTO&gt;</text><polygon fill="#A80036" points="1411,785.4844,1401,789.4844,1411,793.4844,1407,789.4844" style="stroke:#A80036;stroke-width:1.0;"/><line style="stroke:#A80036;stroke-width:1.0;stroke-dasharray:2.0,2.0;" x1="1405" x2="1583" y1="789.4844" y2="789.4844"/><text fill="#000000" font-family="sans-serif" font-size="13" lengthAdjust="spacing" textLength="71" x="1417" y="784.4185">WorkDTO[]</text><polygon fill="#A80036" points="1205,819.6172,1195,823.6172,1205,827.6172,1201,823.6172" style="stroke:#A80036;stroke-width:1.0;"/><line style="stroke:#A80036;stroke-width:1.0;stroke-dasharray:2.0,2.0;" x1="1199" x2="1389" y1="823.6172" y2="823.6172"/><text fill="#000000" font-family="sans-serif" font-size="13" lengthAdjust="spacing" textLength="71" x="1211" y="818.5513">WorkDTO[]</text><path d="M932,802.4844 L932,827.4844 L1175,827.4844 L1175,812.4844 L1165,802.4844 L932,802.4844 " fill="#FBFB77" filter="url(#fp8l3nvmmxuiu)" style="stroke:#A80036;stroke-width:1.0;"/><path d="M1165,802.4844 L1165,812.4844 L1175,812.4844 L1165,802.4844 " fill="#FBFB77" style="stroke:#A80036;stroke-width:1.0;"/><text fill="#000000" font-family="sans-serif" font-size="13" lengthAdjust="spacing" textLength="222" x="938" y="819.5513">Fin: Tareas se muestran al usuario</text><!--MD5=[b42e94224857069fceebf478f5de8a38]
@startuml
/'!theme metal'/
actor User
Participant LoginComponent#LightBlue
Participant "app-routing-module" as routing #LightBlue
Participant AuthorizationGuard #LightBlue
Participant "dev-routing-module" as devr <<DevModule>>   #LightBlue
Participant NavComponent  #LightBlue
Participant AssignmentsTableComponent  #LightBlue
Participant AssignmentService #LightBlue
Participant Red #LightYellow
Participant AuthorizationFilter #LightGreen
Participant WorkController <<WebApi>> #LightGreen
Participant WorkBusinessLogic #LightGreen
Participant WorkDataAccess #LightGreen
database DataBase #LightGreen

activate routing 
activate routing 
activate LoginComponent
User -> LoginComponent: click Login
LoginComponent -> routing : router.navigateByUrl(`/dev`) : void
deactivate LoginComponent

routing -> AuthorizationGuard : canActivate, data: { role: 'dev' }
activate AuthorizationGuard
AuthorizationGuard - -> routing : true
deactivate AuthorizationGuard
activate devr
routing -> devr : import('./views/dev/dev.module')
devr -> devr : redirectTo: 'bug'
devr -> NavComponent: loads
activate NavComponent
User -> NavComponent: click Assisgnments
NavComponent -> devr: routerLink="assignments"
devr -> AssignmentsTableComponent: loads 
activate AssignmentsTableComponent
AssignmentsTableComponent -> AssignmentService : getAssignments()  
activate AssignmentService
AssignmentService -> Red : GET HTTP endpoint/works
activate Red

Red -> AuthorizationFilter
ref over AuthorizationFilter
  Login y autorización 
  (no parte de este diagrama)
end ref
Red -> WorkController: [HttpGet] GetAll()
activate WorkController
WorkController -> WorkBusinessLogic: GetAll(token)
activate WorkBusinessLogic
WorkBusinessLogic -> WorkDataAccess : GetAll(token)
activate WorkDataAccess
WorkDataAccess -> DataBase: context.Work
activate DataBase

DataBase - -> WorkDataAccess: Dbset<Work>
deactivate DataBase
WorkDataAccess - -> WorkBusinessLogic: works : List<Work> 
deactivate WorkDataAccess
WorkBusinessLogic - -> WorkController:  works : List<WorkDTO>
deactivate WorkBusinessLogic
WorkController - -> Red : JSON<WorkDTO>
deactivate WorkController
Red - -> AssignmentService : WorkDTO[]
AssignmentService - -> AssignmentsTableComponent : WorkDTO[]
note left : Fin: Tareas se muestran al usuario
@enduml

@startuml
actor User
Participant LoginComponent#LightBlue
Participant "app-routing-module" as routing #LightBlue
Participant AuthorizationGuard #LightBlue
Participant "dev-routing-module" as devr <<DevModule>>   #LightBlue
Participant NavComponent  #LightBlue
Participant AssignmentsTableComponent  #LightBlue
Participant AssignmentService #LightBlue
Participant Red #LightYellow
Participant AuthorizationFilter #LightGreen
Participant WorkController <<WebApi>> #LightGreen
Participant WorkBusinessLogic #LightGreen
Participant WorkDataAccess #LightGreen
database DataBase #LightGreen

activate routing 
activate routing 
activate LoginComponent
User -> LoginComponent: click Login
LoginComponent -> routing : router.navigateByUrl(`/dev`) : void
deactivate LoginComponent

routing -> AuthorizationGuard : canActivate, data: { role: 'dev' }
activate AuthorizationGuard
AuthorizationGuard - -> routing : true
deactivate AuthorizationGuard
activate devr
routing -> devr : import('./views/dev/dev.module')
devr -> devr : redirectTo: 'bug'
devr -> NavComponent: loads
activate NavComponent
User -> NavComponent: click Assisgnments
NavComponent -> devr: routerLink="assignments"
devr -> AssignmentsTableComponent: loads 
activate AssignmentsTableComponent
AssignmentsTableComponent -> AssignmentService : getAssignments()  
activate AssignmentService
AssignmentService -> Red : GET HTTP endpoint/works
activate Red

Red -> AuthorizationFilter
ref over AuthorizationFilter
  Login y autorización 
  (no parte de este diagrama)
end ref
Red -> WorkController: [HttpGet] GetAll()
activate WorkController
WorkController -> WorkBusinessLogic: GetAll(token)
activate WorkBusinessLogic
WorkBusinessLogic -> WorkDataAccess : GetAll(token)
activate WorkDataAccess
WorkDataAccess -> DataBase: context.Work
activate DataBase

DataBase - -> WorkDataAccess: Dbset<Work>
deactivate DataBase
WorkDataAccess - -> WorkBusinessLogic: works : List<Work> 
deactivate WorkDataAccess
WorkBusinessLogic - -> WorkController:  works : List<WorkDTO>
deactivate WorkBusinessLogic
WorkController - -> Red : JSON<WorkDTO>
deactivate WorkController
Red - -> AssignmentService : WorkDTO[]
AssignmentService - -> AssignmentsTableComponent : WorkDTO[]
note left : Fin: Tareas se muestran al usuario
@enduml

PlantUML version 1.2021.15beta5(Unknown compile time)
(GPL source distribution)
Java Runtime: Java(TM) SE Runtime Environment
JVM: Java HotSpot(TM) 64-Bit Server VM
Default Encoding: UTF-8
Language: en
Country: US
--></g></svg>